Directed by: 
Mike Newell 
Writer: 
Jordan Mechner 
Jeffrey Nachmanoff 
Premiere: 
2010-05-21 (Poland) 
2010-05-26 (World) 
2010-09-10 (Poland DVD) 
Genre: 
Adventure | costume | Fantasy 
Distributor: 
Forum Film Poland 

Cast: 
Jake Gyllenhaal ... Prince Dastan 
Gemma Arterton ... Tamina 
Ben Kingsley ... Nizam 
Alfred Molina ... Sheikh Amar 
Steve Toussaint ... Seso 
Toby Kebbell ... Garsiv 
Richard Coyle ... Tus 
Ronald Pickup ... King Sharaman 

Synopsis: 
IX century medieval Persia. The main character - a young prince, during one of the expeditions of war encounters a magical blade with powerful capabilities and mysterious hourglass concealed in the Sands of Time, which can replace humans in the sand monsters. (Description of the distributor) 

General 
Complete name: Prince.Of.Persia.The.Sands.Of.Time.2010.PL.720p.BRRip.XviD.AC3-buli01.avi 
Format: AVI 
Format / Info: Audio Video Interleave 
Format profile: OpenDML 
File size: 3.01 GiB 
Duration: 1h 51mn 
Overall bit rate: 3 881 Kbps 
Writing application: VirtualDubMod 1.5.10.2 (build 2540/release) 
Writing library: VirtualDubMod build 2540/release 

Video 
ID: 0 
Format: MPEG-4 Visual 
Format profiles: Advanced Simple @ L5 
Format settings, BVOP: Yes 
Format settings, qpel: No. 
Format settings, GMC: No warppoints 
Format settings, Matrix: Custom 
Muxing mode: Packed bitstream 
Codec ID: XVID 
Codec ID / Hint: XviD 
Duration: 1h 51mn 
Bit rate: 3 422 Kbps 
Width: 1 280 pixels 
Height: 544 pixels 
Display aspect ratio: 2.35:1 
Frame rate: 25.000 fps 
Original frame rate: 23.976 fps 
Color space: YUV 
Subsampling Chroma: 4:2:0 
Bit depth: 8 bits 
Scan type: Progressive 
Bits / (Pixel * Frame): 0.197 
Stream size: 2.66 GiB (88%) 
Writing library: XviD 1.2.1 (UTC 2008-12-04) 

Audio 
ID: 1 
Format: AC-3 
Format / Info: Audio Coding 3 
Mode extension: CM (complete main) 
Codec ID: 2000 
Duration: 1h 51mn 
Bit rate mode: Constant 
Bit rate: 448 Kbps 
Channel (s): 6 channels 
Channel positions: Front: L C R Side: L R, LFE 
Sampling rate: 48.0 KHz 
Bit depth: 16 bits 
Video delay: 900ms 
Stream size: 356 MiB (12%) 
Alignment: Split Across interleaves 
Interleave, duration: 40 ms (1.00 video frame) 
Interleave, preload duration: 500 ms